<svg xmlns="http://www.w3.org/2000/svg" viewBox="790 375 985 200" fill="none">
  <g fill="#165DFF">
    <path d="M957.809 562.006H829.267L957.809 448.375V562.006ZM1014.94 562.006H972.091V489.589L1014.94 448.375V562.006ZM1042.58 422.153L1031.97 410.029L972.326 467.013V412.488L809.476 560.222H794.99L981.952 390.614V444.36L1025.55 402.703L1014.94 390.584L1054.93 381.362L1042.58 422.153Z"/>
    <path d="M1149.96 562.389L1141.88 534.277H1096.49L1088.41 562.389H1054.24L1098.88 430.65H1138.94L1184.14 562.389H1149.96ZM1127.18 481.912C1126.57 479.708 1125.71 476.768 1124.61 473.093C1123.63 469.296 1122.59 465.437 1121.48 461.518C1120.5 457.598 1119.71 454.291 1119.09 451.596C1118.6 454.291 1117.81 457.659 1116.71 461.701C1115.73 465.621 1114.75 469.48 1113.77 473.277C1112.79 476.952 1111.99 479.83 1111.38 481.912L1103.66 508.187H1134.9L1127.18 481.912Z"/>
    <path d="M1253.96 562.389H1190.21V544.566H1206.37V449.023H1190.21V431.201H1253.96V449.023H1237.79V544.566H1253.96V562.389Z"/>
    <path d="M1333.35 459.681C1344.01 459.681 1352.59 462.62 1359.08 468.5C1365.69 474.257 1369 483.628 1369 496.612V562.39H1338.13V505.247C1338.13 498.265 1336.97 492.998 1334.64 489.446C1332.31 485.894 1328.64 484.118 1323.62 484.118C1316.14 484.118 1311.06 486.935 1308.37 492.57C1305.67 498.082 1304.32 506.044 1304.32 516.455V562.39H1273.27V461.518H1301.02V474.563H1302.49C1305.67 469.664 1309.96 465.989 1315.35 463.539C1320.74 460.967 1326.74 459.681 1333.35 459.681Z"/>
    <path d="M1420.28 562.39L1381.88 461.518H1414.21L1432.59 519.947C1433.2 522.029 1433.75 524.601 1434.24 527.663C1434.85 530.603 1435.22 533.298 1435.34 535.748H1436.08C1436.2 533.176 1436.51 530.481 1437 527.663C1437.61 524.846 1438.28 522.335 1439.02 520.13L1457.76 461.518H1489.91L1451.51 562.39H1420.28Z"/>
    <path d="M1546.67 459.681C1560.88 459.681 1572.15 463.6 1580.47 471.44C1588.8 479.157 1592.97 490.548 1592.97 505.615V519.946H1529.21C1529.46 526.561 1531.6 531.828 1535.64 535.748C1539.68 539.667 1545.44 541.627 1552.91 541.627C1559.28 541.627 1565.1 541.015 1570.37 539.79C1575.76 538.565 1581.27 536.605 1586.91 533.91V556.877C1581.88 559.45 1576.55 561.287 1570.92 562.389C1565.41 563.614 1558.55 564.227 1550.34 564.227C1540.17 564.227 1531.11 562.389 1523.15 558.715C1515.31 555.04 1509.12 549.405 1504.59 541.811C1500.18 534.094 1497.98 524.356 1497.98 512.597C1497.98 500.715 1500 490.855 1504.04 483.015C1508.08 475.176 1513.72 469.357 1520.94 465.56C1528.29 461.64 1536.87 459.681 1546.67 459.681ZM1547.22 481.178C1542.44 481.178 1538.46 482.709 1535.28 485.771C1532.21 488.711 1530.38 493.427 1529.76 499.919H1564.49C1564.37 494.652 1562.9 490.242 1560.08 486.69C1557.26 483.015 1552.98 481.178 1547.22 481.178Z"/>
    <path d="M1686.41 531.889C1686.41 541.811 1682.92 549.712 1675.93 555.591C1669.07 561.348 1658.29 564.227 1643.6 564.227C1636.49 564.227 1630.24 563.798 1624.85 562.941C1619.59 562.083 1614.26 560.552 1608.87 558.347V533.359C1614.75 536.054 1620.87 538.136 1627.24 539.606C1633.61 540.954 1639 541.627 1643.41 541.627C1648.07 541.627 1651.43 541.015 1653.52 539.79C1655.6 538.565 1656.64 536.85 1656.64 534.645C1656.64 533.053 1656.09 531.644 1654.99 530.419C1654.01 529.194 1651.92 527.847 1648.74 526.377C1645.68 524.785 1641.08 522.702 1634.96 520.13C1628.96 517.558 1624 514.924 1620.08 512.229C1616.28 509.535 1613.4 506.35 1611.44 502.675C1609.6 498.878 1608.69 494.162 1608.69 488.527C1608.69 478.973 1612.36 471.807 1619.71 467.03C1627.18 462.13 1637.04 459.681 1649.29 459.681C1655.78 459.681 1661.91 460.354 1667.66 461.702C1673.42 463.049 1679.36 465.131 1685.49 467.949L1676.67 488.895C1671.65 486.69 1666.75 484.914 1661.97 483.566C1657.31 482.219 1653.09 481.545 1649.29 481.545C1642.19 481.545 1638.63 483.383 1638.63 487.057C1638.63 488.405 1639.12 489.691 1640.1 490.916C1641.21 492.018 1643.23 493.243 1646.17 494.591C1649.23 495.938 1653.64 497.837 1659.4 500.286C1665.15 502.614 1670.05 505.125 1674.1 507.82C1678.14 510.392 1681.2 513.577 1683.28 517.374C1685.36 521.171 1686.41 526.01 1686.41 531.889Z"/>
    <path d="M1752.52 539.605C1755.59 539.605 1758.47 539.299 1761.16 538.687C1763.98 538.074 1766.8 537.278 1769.61 536.298V559.081C1766.31 560.551 1762.51 561.776 1758.22 562.756C1753.93 563.736 1748.85 564.226 1742.97 564.226C1736.72 564.226 1731.15 563.246 1726.25 561.286C1721.47 559.204 1717.68 555.713 1714.86 550.813C1712.16 545.914 1710.82 538.993 1710.82 530.051V484.668H1697.96V461.885H1713.39V440.571H1741.68V461.517H1768.51V484.668H1741.68V528.949C1741.68 532.501 1742.66 535.196 1744.62 537.033C1746.58 538.748 1749.22 539.605 1752.52 539.605Z"/>
  </g>
</svg>
